<svg xmlns="http://www.w3.org/2000/svg" viewBox="0 0 100 100" width="1024" height="1024">
  <defs>
    <radialGradient id="body_example_dj" cx="50%" cy="35%" r="70%">
      <stop offset="0%" stop-color="#283747" />
      <stop offset="50%" stop-color="#17202a" />
      <stop offset="100%" stop-color="#0b0f13" />
    </radialGradient>
    
    
    
    

    <radialGradient id="eyeYellow" cx="35%" cy="35%" r="65%">
      <stop offset="0%" stop-color="#ffffcc" /><stop offset="35%" stop-color="#f5d142" /><stop offset="100%" stop-color="#b38a00" />
    </radialGradient>
    <radialGradient id="eyeCyan" cx="35%" cy="35%" r="65%">
      <stop offset="0%" stop-color="#ccffff" /><stop offset="35%" stop-color="#42e6f5" /><stop offset="100%" stop-color="#0092b3" />
    </radialGradient>
    <radialGradient id="eyeGreen" cx="35%" cy="35%" r="65%">
      <stop offset="0%" stop-color="#ddffcc" /><stop offset="35%" stop-color="#6df542" /><stop offset="100%" stop-color="#1b8a00" />
    </radialGradient>
    <radialGradient id="eyeBlue" cx="35%" cy="35%" r="65%">
      <stop offset="0%" stop-color="#cce6ff" /><stop offset="35%" stop-color="#4293f5" /><stop offset="100%" stop-color="#0046b3" />
    </radialGradient>
    <radialGradient id="eyeCopper" cx="35%" cy="35%" r="65%">
      <stop offset="0%" stop-color="#ffeacc" /><stop offset="35%" stop-color="#f58a42" /><stop offset="100%" stop-color="#a34100" />
    </radialGradient>
    <radialGradient id="eyeHazel" cx="35%" cy="35%" r="65%">
      <stop offset="0%" stop-color="#efffcc" /><stop offset="35%" stop-color="#baf542" /><stop offset="100%" stop-color="#698500" />
    </radialGradient>
    
    <clipPath id="headClip_example_dj"><ellipse cx="50" cy="62" rx="38" ry="26" /></clipPath>
  </defs>
  <g transform="translate(0, -2)">
    
    <!-- Ears (Tinted for point breeds) -->
    <path d="M 22,47 Q 15,24 28,24 Q 34,24 40,40" fill="url(#body_example_dj)" stroke="#1a1a1c" stroke-width="2.5" stroke-linecap="round" stroke-linejoin="round" />
    <path d="M 78,47 Q 85,24 72,24 Q 66,24 60,40" fill="url(#body_example_dj)" stroke="#1a1a1c" stroke-width="2.5" stroke-linecap="round" stroke-linejoin="round" />
    
    <!-- Head Base -->
    <ellipse cx="50" cy="62" rx="38" ry="26" fill="url(#body_example_dj)" stroke="#1a1a1c" stroke-width="2.5" />
    
    <!-- Point Faces (Siamese, Ragdoll) -->
    

    <!-- Patterns (Masked to Head) -->
    <g clip-path="url(#headClip_example_dj)">
  <path d="M 50,45 C 38,55 28,75 28,90 L 72,90 C 72,75 62,55 50,45 Z" fill="#ffffff" />
  <ellipse cx="50" cy="70" rx="20" ry="12" fill="#ffffff" />
</g>
    
    <!-- Inner Head Outline -->
    <ellipse cx="50" cy="61" rx="35" ry="23" fill="none" stroke="rgba(255,255,255,0.08)" stroke-width="1.5" />
    
    <!-- Left Eye -->
    <circle cx="32" cy="57" r="6.5" fill="url(#eyeYellow)" stroke="#1a1a1c" stroke-width="1.5" />
    <circle cx="30" cy="54.5" r="2.2" fill="#ffffff" />
    <circle cx="34" cy="60" r="1.2" fill="#ffffff" opacity="0.6" />
    
    <!-- Right Eye -->
    <circle cx="68" cy="57" r="6.5" fill="url(#eyeYellow)" stroke="#1a1a1c" stroke-width="1.5" />
    <circle cx="66" cy="54.5" r="2.2" fill="#ffffff" />
    <circle cx="70" cy="60" r="1.2" fill="#ffffff" opacity="0.6" />
    
    <!-- Nose -->
    <ellipse cx="50" cy="64" rx="4" ry="2.5" fill="#3a2a26" />
    <ellipse cx="49.5" cy="63.2" rx="1.5" ry="0.8" fill="#8c7772" />
    
    <!-- Mouth -->
    
    <path d="M 40,69 Q 45,74.5 50,69" fill="none" stroke="#1a1a1c" stroke-width="2.5" stroke-linecap="round" />
    <path d="M 50,69 Q 55,74.5 60,69" fill="none" stroke="#1a1a1c" stroke-width="2.5" stroke-linecap="round" />
  

    <!-- Whiskers -->
    
  <path d="M 25,62 Q 15,64 5,60" fill="none" stroke="#1a1a1c" stroke-width="1.5" stroke-linecap="round" />
  <path d="M 25,68 Q 15,69 5,65" fill="none" stroke="#1a1a1c" stroke-width="1.5" stroke-linecap="round" />
  <path d="M 75,62 Q 85,64 95,60" fill="none" stroke="#1a1a1c" stroke-width="1.5" stroke-linecap="round" />
  <path d="M 75,68 Q 85,69 95,65" fill="none" stroke="#1a1a1c" stroke-width="1.5" stroke-linecap="round" />


    <!-- Accessories -->
    <g transform="translate(0, -1)"><path d="M 26,53 L 9,48" stroke="#161616" stroke-width="2.5" stroke-linecap="round" /><path d="M 74,53 L 91,48" stroke="#161616" stroke-width="2.5" stroke-linecap="round" /><path d="M 22,53 C 25,50 33,49 40,50 C 41,54 40,58 37,61 C 31,63 25,61 22,53 Z" fill="#0c0c0e" stroke="#1f1f22" stroke-width="2" stroke-linejoin="round" /><path d="M 60,50 C 67,49 75,50 78,53 C 75,61 69,63 63,61 C 60,58 59,54 60,50 Z" fill="#0c0c0e" stroke="#1f1f22" stroke-width="2" stroke-linejoin="round" /><path d="M 22,53 C 28,55 34,56 40,55" fill="none" stroke="#3a3a40" stroke-width="1.2" opacity="0.35" /><path d="M 60,55 C 66,56 72,55 78,53" fill="none" stroke="#3a3a40" stroke-width="1.2" opacity="0.35" /><path d="M 40,51 Q 50,48 60,51" fill="none" stroke="#161616" stroke-width="3" stroke-linecap="round" /></g><path d="M 12,48 C 12,15 88,15 88,48" fill="none" stroke="#2c3e50" stroke-width="6" stroke-linecap="round" /><rect x="2" y="42" width="16" height="32" rx="6" fill="#e74c3c" stroke="#1a1a1c" stroke-width="2" /><rect x="82" y="42" width="16" height="32" rx="6" fill="#e74c3c" stroke="#1a1a1c" stroke-width="2" />
  </g>
</svg>