<svg xmlns="http://www.w3.org/2000/svg" viewBox="0 0 100 100" width="1024" height="1024">
  <defs>
    <radialGradient id="body_example_fashion" cx="50%" cy="35%" r="70%">
      <stop offset="0%" stop-color="#cfd4d8" />
      <stop offset="50%" stop-color="#a4aeb8" />
      <stop offset="100%" stop-color="#63717d" />
    </radialGradient>
    
    
    
    

    <radialGradient id="eyeYellow" cx="35%" cy="35%" r="65%">
      <stop offset="0%" stop-color="#ffffcc" /><stop offset="35%" stop-color="#f5d142" /><stop offset="100%" stop-color="#b38a00" />
    </radialGradient>
    <radialGradient id="eyeCyan" cx="35%" cy="35%" r="65%">
      <stop offset="0%" stop-color="#ccffff" /><stop offset="35%" stop-color="#42e6f5" /><stop offset="100%" stop-color="#0092b3" />
    </radialGradient>
    <radialGradient id="eyeGreen" cx="35%" cy="35%" r="65%">
      <stop offset="0%" stop-color="#ddffcc" /><stop offset="35%" stop-color="#6df542" /><stop offset="100%" stop-color="#1b8a00" />
    </radialGradient>
    <radialGradient id="eyeBlue" cx="35%" cy="35%" r="65%">
      <stop offset="0%" stop-color="#cce6ff" /><stop offset="35%" stop-color="#4293f5" /><stop offset="100%" stop-color="#0046b3" />
    </radialGradient>
    <radialGradient id="eyeCopper" cx="35%" cy="35%" r="65%">
      <stop offset="0%" stop-color="#ffeacc" /><stop offset="35%" stop-color="#f58a42" /><stop offset="100%" stop-color="#a34100" />
    </radialGradient>
    <radialGradient id="eyeHazel" cx="35%" cy="35%" r="65%">
      <stop offset="0%" stop-color="#efffcc" /><stop offset="35%" stop-color="#baf542" /><stop offset="100%" stop-color="#698500" />
    </radialGradient>
    
    <clipPath id="headClip_example_fashion"><ellipse cx="50" cy="62" rx="38" ry="26" /></clipPath>
  </defs>
  <g transform="translate(0, -2)">
    
    <!-- Ears (Tinted for point breeds) -->
    <path d="M 22,47 Q 15,24 28,24 Q 34,24 40,40" fill="url(#body_example_fashion)" stroke="#1a1a1c" stroke-width="2.5" stroke-linecap="round" stroke-linejoin="round" />
    <path d="M 78,47 Q 85,24 72,24 Q 66,24 60,40" fill="url(#body_example_fashion)" stroke="#1a1a1c" stroke-width="2.5" stroke-linecap="round" stroke-linejoin="round" />
    
    <!-- Head Base -->
    <ellipse cx="50" cy="62" rx="38" ry="26" fill="url(#body_example_fashion)" stroke="#1a1a1c" stroke-width="2.5" />
    
    <!-- Point Faces (Siamese, Ragdoll) -->
    

    <!-- Patterns (Masked to Head) -->
    <g clip-path="url(#headClip_example_fashion)">
  <path d="M 50,40 C 25,45 15,65 15,90 L 85,90 C 85,65 75,45 50,40 Z" fill="#ffffff" />
  <ellipse cx="50" cy="72" rx="22" ry="14" fill="#ffffff" />
</g>
    
    <!-- Inner Head Outline -->
    <ellipse cx="50" cy="61" rx="35" ry="23" fill="none" stroke="rgba(255,255,255,0.08)" stroke-width="1.5" />
    
    <!-- Left Eye -->
    <circle cx="32" cy="57" r="6.5" fill="url(#eyeYellow)" stroke="#1a1a1c" stroke-width="1.5" />
    <circle cx="30" cy="54.5" r="2.2" fill="#ffffff" />
    <circle cx="34" cy="60" r="1.2" fill="#ffffff" opacity="0.6" />
    
    <!-- Right Eye -->
    <circle cx="68" cy="57" r="6.5" fill="url(#eyeYellow)" stroke="#1a1a1c" stroke-width="1.5" />
    <circle cx="66" cy="54.5" r="2.2" fill="#ffffff" />
    <circle cx="70" cy="60" r="1.2" fill="#ffffff" opacity="0.6" />
    
    <!-- Nose -->
    <ellipse cx="50" cy="64" rx="4" ry="2.5" fill="#3a2a26" />
    <ellipse cx="49.5" cy="63.2" rx="1.5" ry="0.8" fill="#8c7772" />
    
    <!-- Mouth -->
    <path d="M 40,69 Q 50,80 60,69" fill="none" stroke="#1a1a1c" stroke-width="2.5" stroke-linecap="round" />

    <!-- Whiskers -->
    
  <path d="M 25,62 Q 15,64 5,60" fill="none" stroke="#1a1a1c" stroke-width="1.5" stroke-linecap="round" />
  <path d="M 25,68 Q 15,69 5,65" fill="none" stroke="#1a1a1c" stroke-width="1.5" stroke-linecap="round" />
  <path d="M 75,62 Q 85,64 95,60" fill="none" stroke="#1a1a1c" stroke-width="1.5" stroke-linecap="round" />
  <path d="M 75,68 Q 85,69 95,65" fill="none" stroke="#1a1a1c" stroke-width="1.5" stroke-linecap="round" />


    <!-- Accessories -->
    <circle cx="20" cy="66" r="5" fill="#ff77aa" opacity="0.6" /><circle cx="80" cy="66" r="5" fill="#ff77aa" opacity="0.6" /><path d="M 23,56 A 11 11 0 0 1 41,56 Z" fill="#3498db" opacity="0.5" /><path d="M 59,56 A 11 11 0 0 1 77,56 Z" fill="#3498db" opacity="0.5" /><g transform="translate(18, 42)"><circle cx="0" cy="4" r="3" fill="none" stroke="#f1c40f" stroke-width="2"/><path d="M 0,7 L -2,12 L 0,15 L 2,12 Z" fill="#9b59b6" stroke="#1a1a1c" stroke-width="1"/></g><g transform="translate(67, 30) rotate(14) scale(0.78)"><path d="M -8,0 V -18 C -8,-23 8,-23 8,-18 V 0 Z" fill="#3498db" stroke="#1a1a1c" stroke-width="2" stroke-linejoin="round"/><path d="M -16,1 C -16,5 16,5 16,1 C 16,-3 -16,-3 -16,1 Z" fill="#3498db" stroke="#1a1a1c" stroke-width="2" stroke-linejoin="round"/><path d="M -8,-7 C -3,-10 3,-10 8,-7" fill="none" stroke="#5dade2" stroke-width="1.5" stroke-linecap="round" opacity="0.55"/></g>
  </g>
</svg>