<svg xmlns="http://www.w3.org/2000/svg" viewBox="0 0 100 100" width="1024" height="1024">
  <defs>
    <radialGradient id="body_example_smallhat" cx="50%" cy="35%" r="70%">
      <stop offset="0%" stop-color="#ffffff" />
      <stop offset="50%" stop-color="#f4f6f7" />
      <stop offset="100%" stop-color="#dadddf" />
    </radialGradient>
    
    
    
    

    <radialGradient id="eyeYellow" cx="35%" cy="35%" r="65%">
      <stop offset="0%" stop-color="#ffffcc" /><stop offset="35%" stop-color="#f5d142" /><stop offset="100%" stop-color="#b38a00" />
    </radialGradient>
    <radialGradient id="eyeCyan" cx="35%" cy="35%" r="65%">
      <stop offset="0%" stop-color="#ccffff" /><stop offset="35%" stop-color="#42e6f5" /><stop offset="100%" stop-color="#0092b3" />
    </radialGradient>
    <radialGradient id="eyeGreen" cx="35%" cy="35%" r="65%">
      <stop offset="0%" stop-color="#ddffcc" /><stop offset="35%" stop-color="#6df542" /><stop offset="100%" stop-color="#1b8a00" />
    </radialGradient>
    <radialGradient id="eyeBlue" cx="35%" cy="35%" r="65%">
      <stop offset="0%" stop-color="#cce6ff" /><stop offset="35%" stop-color="#4293f5" /><stop offset="100%" stop-color="#0046b3" />
    </radialGradient>
    <radialGradient id="eyeCopper" cx="35%" cy="35%" r="65%">
      <stop offset="0%" stop-color="#ffeacc" /><stop offset="35%" stop-color="#f58a42" /><stop offset="100%" stop-color="#a34100" />
    </radialGradient>
    <radialGradient id="eyeHazel" cx="35%" cy="35%" r="65%">
      <stop offset="0%" stop-color="#efffcc" /><stop offset="35%" stop-color="#baf542" /><stop offset="100%" stop-color="#698500" />
    </radialGradient>
    
    <clipPath id="headClip_example_smallhat"><ellipse cx="50" cy="62" rx="38" ry="26" /></clipPath>
  </defs>
  <g transform="translate(0, -2)">
    
    <!-- Ears (Tinted for point breeds) -->
    <path d="M 22,47 Q 15,24 28,24 Q 34,24 40,40" fill="url(#body_example_smallhat)" stroke="#1a1a1c" stroke-width="2.5" stroke-linecap="round" stroke-linejoin="round" />
    <path d="M 78,47 Q 85,24 72,24 Q 66,24 60,40" fill="url(#body_example_smallhat)" stroke="#1a1a1c" stroke-width="2.5" stroke-linecap="round" stroke-linejoin="round" />
    
    <!-- Head Base -->
    <ellipse cx="50" cy="62" rx="38" ry="26" fill="url(#body_example_smallhat)" stroke="#1a1a1c" stroke-width="2.5" />
    
    <!-- Point Faces (Siamese, Ragdoll) -->
    

    <!-- Patterns (Masked to Head) -->
    <g clip-path="url(#headClip_example_smallhat)">
  <path d="M 25,38 C 35,32 42,42 38,52 C 32,62 18,52 25,38 Z" fill="#1a1a1c" opacity="0.95"/>
  <path d="M 68,62 C 78,58 85,72 75,82 C 65,88 58,75 68,62 Z" fill="#1a1a1c" opacity="0.95"/>
  <path d="M 60,35 C 68,32 72,38 65,45 C 58,48 52,40 60,35 Z" fill="#1a1a1c" opacity="0.95"/>
</g>
    
    <!-- Inner Head Outline -->
    <ellipse cx="50" cy="61" rx="35" ry="23" fill="none" stroke="rgba(255,255,255,0.08)" stroke-width="1.5" />
    
    <!-- Left Eye -->
    <circle cx="32" cy="57" r="6.5" fill="url(#eyeYellow)" stroke="#1a1a1c" stroke-width="1.5" />
    <circle cx="30" cy="54.5" r="2.2" fill="#ffffff" />
    <circle cx="34" cy="60" r="1.2" fill="#ffffff" opacity="0.6" />
    
    <!-- Right Eye -->
    <circle cx="68" cy="57" r="6.5" fill="url(#eyeYellow)" stroke="#1a1a1c" stroke-width="1.5" />
    <circle cx="66" cy="54.5" r="2.2" fill="#ffffff" />
    <circle cx="70" cy="60" r="1.2" fill="#ffffff" opacity="0.6" />
    
    <!-- Nose -->
    <ellipse cx="50" cy="64" rx="4" ry="2.5" fill="#3a2a26" />
    <ellipse cx="49.5" cy="63.2" rx="1.5" ry="0.8" fill="#8c7772" />
    
    <!-- Mouth -->
    <path d="M 40,69 Q 50,80 60,69" fill="none" stroke="#1a1a1c" stroke-width="2.5" stroke-linecap="round" />

    <!-- Whiskers -->
    
  <path d="M 25,62 Q 15,64 5,60" fill="none" stroke="#1a1a1c" stroke-width="1.5" stroke-linecap="round" />
  <path d="M 25,68 Q 15,69 5,65" fill="none" stroke="#1a1a1c" stroke-width="1.5" stroke-linecap="round" />
  <path d="M 75,62 Q 85,64 95,60" fill="none" stroke="#1a1a1c" stroke-width="1.5" stroke-linecap="round" />
  <path d="M 75,68 Q 85,69 95,65" fill="none" stroke="#1a1a1c" stroke-width="1.5" stroke-linecap="round" />


    <!-- Accessories -->
    <g transform="translate(67, 30) rotate(14) scale(0.78)"><path d="M -8,0 V -18 C -8,-23 8,-23 8,-18 V 0 Z" fill="#3498db" stroke="#1a1a1c" stroke-width="2" stroke-linejoin="round"/><path d="M -16,1 C -16,5 16,5 16,1 C 16,-3 -16,-3 -16,1 Z" fill="#3498db" stroke="#1a1a1c" stroke-width="2" stroke-linejoin="round"/><path d="M -8,-7 C -3,-10 3,-10 8,-7" fill="none" stroke="#5dade2" stroke-width="1.5" stroke-linecap="round" opacity="0.55"/></g><g transform="translate(0, 2)"><path d="M 46,76 Q 34,68 33,78 Q 32,88 46,80 Z" fill="#e74c3c" stroke="#1a1a1c" stroke-width="2" stroke-linejoin="round" /><path d="M 54,76 Q 66,68 67,78 Q 68,88 54,80 Z" fill="#e74c3c" stroke="#1a1a1c" stroke-width="2" stroke-linejoin="round" /><circle cx="50" cy="78" r="5" fill="#c0392b" stroke="#1a1a1c" stroke-width="2" /></g>
  </g>
</svg>